<mxfile host="app.diagrams.net" modified="2024-05-16T14:13:51.783Z" agent="Mozilla/5.0 (Windows NT 10.0; Win64; x64) AppleWebKit/537.36 (KHTML, like Gecko) Chrome/123.0.0.0 Safari/537.36 OPR/109.0.0.0" etag="gK_oWvDUHi6WQ84SKEP5" version="24.4.2" type="device">
  <diagram name="Страница — 1" id="IqmH5967m_-wru2younw">
    <mxGraphModel dx="3749" dy="1212" grid="1" gridSize="10" guides="1" tooltips="1" connect="1" arrows="1" fold="1" page="1" pageScale="1" pageWidth="827" pageHeight="1169" math="0" shadow="0">
      <root>
        <mxCell id="0" />
        <mxCell id="1" parent="0" />
        <mxCell id="-slxVZkrEu4Ym89tPLpN-1" value="User" style="swimlane;fontStyle=0;childLayout=stackLayout;horizontal=1;startSize=26;fillColor=none;horizontalStack=0;resizeParent=1;resizeParentMax=0;resizeLast=0;collapsible=1;marginBottom=0;whiteSpace=wrap;html=1;" vertex="1" parent="1">
          <mxGeometry x="10" y="60" width="140" height="78" as="geometry" />
        </mxCell>
        <mxCell id="-slxVZkrEu4Ym89tPLpN-2" value="- id: int" style="text;strokeColor=none;fillColor=none;align=left;verticalAlign=top;spacingLeft=4;spacingRight=4;overflow=hidden;rotatable=0;points=[[0,0.5],[1,0.5]];portConstraint=eastwest;whiteSpace=wrap;html=1;" vertex="1" parent="-slxVZkrEu4Ym89tPLpN-1">
          <mxGeometry y="26" width="140" height="26" as="geometry" />
        </mxCell>
        <mxCell id="-slxVZkrEu4Ym89tPLpN-3" value="- role: string" style="text;strokeColor=none;fillColor=none;align=left;verticalAlign=top;spacingLeft=4;spacingRight=4;overflow=hidden;rotatable=0;points=[[0,0.5],[1,0.5]];portConstraint=eastwest;whiteSpace=wrap;html=1;" vertex="1" parent="-slxVZkrEu4Ym89tPLpN-1">
          <mxGeometry y="52" width="140" height="26" as="geometry" />
        </mxCell>
        <mxCell id="-slxVZkrEu4Ym89tPLpN-5" value="Client" style="swimlane;fontStyle=0;childLayout=stackLayout;horizontal=1;startSize=26;fillColor=none;horizontalStack=0;resizeParent=1;resizeParentMax=0;resizeLast=0;collapsible=1;marginBottom=0;whiteSpace=wrap;html=1;" vertex="1" parent="1">
          <mxGeometry x="270" y="60" width="140" height="182" as="geometry" />
        </mxCell>
        <mxCell id="-slxVZkrEu4Ym89tPLpN-6" value="- name: string" style="text;strokeColor=none;fillColor=none;align=left;verticalAlign=top;spacingLeft=4;spacingRight=4;overflow=hidden;rotatable=0;points=[[0,0.5],[1,0.5]];portConstraint=eastwest;whiteSpace=wrap;html=1;" vertex="1" parent="-slxVZkrEu4Ym89tPLpN-5">
          <mxGeometry y="26" width="140" height="26" as="geometry" />
        </mxCell>
        <mxCell id="-slxVZkrEu4Ym89tPLpN-7" value="- surname: string" style="text;strokeColor=none;fillColor=none;align=left;verticalAlign=top;spacingLeft=4;spacingRight=4;overflow=hidden;rotatable=0;points=[[0,0.5],[1,0.5]];portConstraint=eastwest;whiteSpace=wrap;html=1;" vertex="1" parent="-slxVZkrEu4Ym89tPLpN-5">
          <mxGeometry y="52" width="140" height="26" as="geometry" />
        </mxCell>
        <mxCell id="-slxVZkrEu4Ym89tPLpN-8" value="- middlename: string" style="text;strokeColor=none;fillColor=none;align=left;verticalAlign=top;spacingLeft=4;spacingRight=4;overflow=hidden;rotatable=0;points=[[0,0.5],[1,0.5]];portConstraint=eastwest;whiteSpace=wrap;html=1;" vertex="1" parent="-slxVZkrEu4Ym89tPLpN-5">
          <mxGeometry y="78" width="140" height="26" as="geometry" />
        </mxCell>
        <mxCell id="-slxVZkrEu4Ym89tPLpN-9" value="- adres: string" style="text;strokeColor=none;fillColor=none;align=left;verticalAlign=top;spacingLeft=4;spacingRight=4;overflow=hidden;rotatable=0;points=[[0,0.5],[1,0.5]];portConstraint=eastwest;whiteSpace=wrap;html=1;" vertex="1" parent="-slxVZkrEu4Ym89tPLpN-5">
          <mxGeometry y="104" width="140" height="26" as="geometry" />
        </mxCell>
        <mxCell id="-slxVZkrEu4Ym89tPLpN-11" value="- phone: string" style="text;strokeColor=none;fillColor=none;align=left;verticalAlign=top;spacingLeft=4;spacingRight=4;overflow=hidden;rotatable=0;points=[[0,0.5],[1,0.5]];portConstraint=eastwest;whiteSpace=wrap;html=1;" vertex="1" parent="-slxVZkrEu4Ym89tPLpN-5">
          <mxGeometry y="130" width="140" height="26" as="geometry" />
        </mxCell>
        <mxCell id="-slxVZkrEu4Ym89tPLpN-10" value="- date: dateonly" style="text;strokeColor=none;fillColor=none;align=left;verticalAlign=top;spacingLeft=4;spacingRight=4;overflow=hidden;rotatable=0;points=[[0,0.5],[1,0.5]];portConstraint=eastwest;whiteSpace=wrap;html=1;" vertex="1" parent="-slxVZkrEu4Ym89tPLpN-5">
          <mxGeometry y="156" width="140" height="26" as="geometry" />
        </mxCell>
        <mxCell id="-slxVZkrEu4Ym89tPLpN-12" value="SeasonTicket" style="swimlane;fontStyle=0;childLayout=stackLayout;horizontal=1;startSize=26;fillColor=none;horizontalStack=0;resizeParent=1;resizeParentMax=0;resizeLast=0;collapsible=1;marginBottom=0;whiteSpace=wrap;html=1;" vertex="1" parent="1">
          <mxGeometry x="470" y="60" width="140" height="182" as="geometry" />
        </mxCell>
        <mxCell id="-slxVZkrEu4Ym89tPLpN-13" value="- ticket_id: int" style="text;strokeColor=none;fillColor=none;align=left;verticalAlign=top;spacingLeft=4;spacingRight=4;overflow=hidden;rotatable=0;points=[[0,0.5],[1,0.5]];portConstraint=eastwest;whiteSpace=wrap;html=1;" vertex="1" parent="-slxVZkrEu4Ym89tPLpN-12">
          <mxGeometry y="26" width="140" height="26" as="geometry" />
        </mxCell>
        <mxCell id="-slxVZkrEu4Ym89tPLpN-14" value="- days_long: int" style="text;strokeColor=none;fillColor=none;align=left;verticalAlign=top;spacingLeft=4;spacingRight=4;overflow=hidden;rotatable=0;points=[[0,0.5],[1,0.5]];portConstraint=eastwest;whiteSpace=wrap;html=1;" vertex="1" parent="-slxVZkrEu4Ym89tPLpN-12">
          <mxGeometry y="52" width="140" height="26" as="geometry" />
        </mxCell>
        <mxCell id="-slxVZkrEu4Ym89tPLpN-15" value="- training_name: string" style="text;strokeColor=none;fillColor=none;align=left;verticalAlign=top;spacingLeft=4;spacingRight=4;overflow=hidden;rotatable=0;points=[[0,0.5],[1,0.5]];portConstraint=eastwest;whiteSpace=wrap;html=1;" vertex="1" parent="-slxVZkrEu4Ym89tPLpN-12">
          <mxGeometry y="78" width="140" height="26" as="geometry" />
        </mxCell>
        <mxCell id="-slxVZkrEu4Ym89tPLpN-16" value="- service_name: string" style="text;strokeColor=none;fillColor=none;align=left;verticalAlign=top;spacingLeft=4;spacingRight=4;overflow=hidden;rotatable=0;points=[[0,0.5],[1,0.5]];portConstraint=eastwest;whiteSpace=wrap;html=1;" vertex="1" parent="-slxVZkrEu4Ym89tPLpN-12">
          <mxGeometry y="104" width="140" height="26" as="geometry" />
        </mxCell>
        <mxCell id="-slxVZkrEu4Ym89tPLpN-17" value="- price: double" style="text;strokeColor=none;fillColor=none;align=left;verticalAlign=top;spacingLeft=4;spacingRight=4;overflow=hidden;rotatable=0;points=[[0,0.5],[1,0.5]];portConstraint=eastwest;whiteSpace=wrap;html=1;" vertex="1" parent="-slxVZkrEu4Ym89tPLpN-12">
          <mxGeometry y="130" width="140" height="26" as="geometry" />
        </mxCell>
        <mxCell id="-slxVZkrEu4Ym89tPLpN-18" value="- visiting_amount: int" style="text;strokeColor=none;fillColor=none;align=left;verticalAlign=top;spacingLeft=4;spacingRight=4;overflow=hidden;rotatable=0;points=[[0,0.5],[1,0.5]];portConstraint=eastwest;whiteSpace=wrap;html=1;" vertex="1" parent="-slxVZkrEu4Ym89tPLpN-12">
          <mxGeometry y="156" width="140" height="26" as="geometry" />
        </mxCell>
        <mxCell id="-slxVZkrEu4Ym89tPLpN-19" value="ClientSeasonTicket" style="swimlane;fontStyle=0;childLayout=stackLayout;horizontal=1;startSize=26;fillColor=none;horizontalStack=0;resizeParent=1;resizeParentMax=0;resizeLast=0;collapsible=1;marginBottom=0;whiteSpace=wrap;html=1;" vertex="1" parent="1">
          <mxGeometry x="650" y="60" width="140" height="234" as="geometry" />
        </mxCell>
        <mxCell id="-slxVZkrEu4Ym89tPLpN-20" value="- ticket_id: int" style="text;strokeColor=none;fillColor=none;align=left;verticalAlign=top;spacingLeft=4;spacingRight=4;overflow=hidden;rotatable=0;points=[[0,0.5],[1,0.5]];portConstraint=eastwest;whiteSpace=wrap;html=1;" vertex="1" parent="-slxVZkrEu4Ym89tPLpN-19">
          <mxGeometry y="26" width="140" height="26" as="geometry" />
        </mxCell>
        <mxCell id="-slxVZkrEu4Ym89tPLpN-26" value="- date_start: dateonly" style="text;strokeColor=none;fillColor=none;align=left;verticalAlign=top;spacingLeft=4;spacingRight=4;overflow=hidden;rotatable=0;points=[[0,0.5],[1,0.5]];portConstraint=eastwest;whiteSpace=wrap;html=1;" vertex="1" parent="-slxVZkrEu4Ym89tPLpN-19">
          <mxGeometry y="52" width="140" height="26" as="geometry" />
        </mxCell>
        <mxCell id="-slxVZkrEu4Ym89tPLpN-27" value="- date_end: dateonly" style="text;strokeColor=none;fillColor=none;align=left;verticalAlign=top;spacingLeft=4;spacingRight=4;overflow=hidden;rotatable=0;points=[[0,0.5],[1,0.5]];portConstraint=eastwest;whiteSpace=wrap;html=1;" vertex="1" parent="-slxVZkrEu4Ym89tPLpN-19">
          <mxGeometry y="78" width="140" height="26" as="geometry" />
        </mxCell>
        <mxCell id="-slxVZkrEu4Ym89tPLpN-21" value="- last_visits: int" style="text;strokeColor=none;fillColor=none;align=left;verticalAlign=top;spacingLeft=4;spacingRight=4;overflow=hidden;rotatable=0;points=[[0,0.5],[1,0.5]];portConstraint=eastwest;whiteSpace=wrap;html=1;" vertex="1" parent="-slxVZkrEu4Ym89tPLpN-19">
          <mxGeometry y="104" width="140" height="26" as="geometry" />
        </mxCell>
        <mxCell id="-slxVZkrEu4Ym89tPLpN-22" value="- training_name: string" style="text;strokeColor=none;fillColor=none;align=left;verticalAlign=top;spacingLeft=4;spacingRight=4;overflow=hidden;rotatable=0;points=[[0,0.5],[1,0.5]];portConstraint=eastwest;whiteSpace=wrap;html=1;" vertex="1" parent="-slxVZkrEu4Ym89tPLpN-19">
          <mxGeometry y="130" width="140" height="26" as="geometry" />
        </mxCell>
        <mxCell id="-slxVZkrEu4Ym89tPLpN-23" value="- service_name: string" style="text;strokeColor=none;fillColor=none;align=left;verticalAlign=top;spacingLeft=4;spacingRight=4;overflow=hidden;rotatable=0;points=[[0,0.5],[1,0.5]];portConstraint=eastwest;whiteSpace=wrap;html=1;" vertex="1" parent="-slxVZkrEu4Ym89tPLpN-19">
          <mxGeometry y="156" width="140" height="26" as="geometry" />
        </mxCell>
        <mxCell id="-slxVZkrEu4Ym89tPLpN-24" value="- price: double" style="text;strokeColor=none;fillColor=none;align=left;verticalAlign=top;spacingLeft=4;spacingRight=4;overflow=hidden;rotatable=0;points=[[0,0.5],[1,0.5]];portConstraint=eastwest;whiteSpace=wrap;html=1;" vertex="1" parent="-slxVZkrEu4Ym89tPLpN-19">
          <mxGeometry y="182" width="140" height="26" as="geometry" />
        </mxCell>
        <mxCell id="-slxVZkrEu4Ym89tPLpN-25" value="- visiting_amount: int" style="text;strokeColor=none;fillColor=none;align=left;verticalAlign=top;spacingLeft=4;spacingRight=4;overflow=hidden;rotatable=0;points=[[0,0.5],[1,0.5]];portConstraint=eastwest;whiteSpace=wrap;html=1;" vertex="1" parent="-slxVZkrEu4Ym89tPLpN-19">
          <mxGeometry y="208" width="140" height="26" as="geometry" />
        </mxCell>
        <mxCell id="-slxVZkrEu4Ym89tPLpN-28" value="Content Page" style="swimlane;fontStyle=0;childLayout=stackLayout;horizontal=1;startSize=26;fillColor=none;horizontalStack=0;resizeParent=1;resizeParentMax=0;resizeLast=0;collapsible=1;marginBottom=0;whiteSpace=wrap;html=1;" vertex="1" parent="1">
          <mxGeometry x="660" y="430" width="140" height="52" as="geometry" />
        </mxCell>
        <mxCell id="-slxVZkrEu4Ym89tPLpN-32" value="" style="endArrow=block;endSize=16;endFill=0;html=1;rounded=0;entryX=0;entryY=0.5;entryDx=0;entryDy=0;exitX=1;exitY=0.5;exitDx=0;exitDy=0;" edge="1" parent="1" source="-slxVZkrEu4Ym89tPLpN-49" target="-slxVZkrEu4Ym89tPLpN-28">
          <mxGeometry width="160" relative="1" as="geometry">
            <mxPoint x="620" y="2330" as="sourcePoint" />
            <mxPoint x="530" y="430" as="targetPoint" />
            <Array as="points">
              <mxPoint x="600" y="2725" />
              <mxPoint x="600" y="456" />
            </Array>
          </mxGeometry>
        </mxCell>
        <mxCell id="-slxVZkrEu4Ym89tPLpN-36" value="&lt;p style=&quot;margin:0px;margin-top:4px;text-align:center;&quot;&gt;&lt;b&gt;ClientMenu&lt;/b&gt;&lt;/p&gt;&lt;p style=&quot;margin:0px;margin-left:4px;&quot;&gt;- user: User&lt;/p&gt;&lt;hr size=&quot;1&quot; style=&quot;border-style:solid;&quot;&gt;&lt;p style=&quot;margin:0px;margin-left:4px;&quot;&gt;- ButtonExit_Click(object sender, EventArgs e): void&lt;/p&gt;&lt;p style=&quot;margin:0px;margin-left:4px;&quot;&gt;-&amp;nbsp;ButtonShowClientAcc_Click(object sender, EventArgs e): async void&lt;/p&gt;&lt;p style=&quot;margin:0px;margin-left:4px;&quot;&gt;-&amp;nbsp;ButtonShowSeasonTickets_Click(object sender, EventArgs e): async void&lt;/p&gt;&lt;p style=&quot;margin:0px;margin-left:4px;&quot;&gt;-&amp;nbsp;ButtonShowSchedule_Click(object sender, EventArgs e): async void&lt;/p&gt;&lt;p style=&quot;margin:0px;margin-left:4px;&quot;&gt;&lt;br&gt;&lt;/p&gt;" style="verticalAlign=top;align=left;overflow=fill;html=1;whiteSpace=wrap;" vertex="1" parent="1">
          <mxGeometry x="100" y="392" width="430" height="128" as="geometry" />
        </mxCell>
        <mxCell id="-slxVZkrEu4Ym89tPLpN-37" value="&lt;p style=&quot;margin:0px;margin-top:4px;text-align:center;&quot;&gt;&lt;b&gt;ClientAcc&lt;/b&gt;&lt;/p&gt;&lt;hr size=&quot;1&quot; style=&quot;border-style:solid;&quot;&gt;&lt;p style=&quot;margin:0px;margin-left:4px;&quot;&gt;- user: User&lt;/p&gt;&lt;hr size=&quot;1&quot; style=&quot;border-style:solid;&quot;&gt;&lt;p style=&quot;margin:0px;margin-left:4px;&quot;&gt;- ButtonExit_Click(object sender, EventArgs e): void&lt;/p&gt;&lt;p style=&quot;margin:0px;margin-left:4px;&quot;&gt;- LoadUser(User user): async void&lt;/p&gt;&lt;p style=&quot;margin:0px;margin-left:4px;&quot;&gt;&lt;br&gt;&lt;/p&gt;" style="verticalAlign=top;align=left;overflow=fill;html=1;whiteSpace=wrap;" vertex="1" parent="1">
          <mxGeometry x="100" y="550" width="430" height="100" as="geometry" />
        </mxCell>
        <mxCell id="-slxVZkrEu4Ym89tPLpN-39" value="&lt;p style=&quot;margin:0px;margin-top:4px;text-align:center;&quot;&gt;&lt;b&gt;EmployeeAcc&lt;/b&gt;&lt;/p&gt;&lt;hr size=&quot;1&quot; style=&quot;border-style:solid;&quot;&gt;&lt;p style=&quot;margin:0px;margin-left:4px;&quot;&gt;- user: User&lt;/p&gt;&lt;hr size=&quot;1&quot; style=&quot;border-style:solid;&quot;&gt;&lt;p style=&quot;margin:0px;margin-left:4px;&quot;&gt;- ButtonExit_Click(object sender, EventArgs e): void&lt;/p&gt;&lt;p style=&quot;margin:0px;margin-left:4px;&quot;&gt;- LoadUser(User user): async void&lt;/p&gt;&lt;p style=&quot;margin:0px;margin-left:4px;&quot;&gt;&lt;br&gt;&lt;/p&gt;" style="verticalAlign=top;align=left;overflow=fill;html=1;whiteSpace=wrap;" vertex="1" parent="1">
          <mxGeometry x="100" y="690" width="430" height="100" as="geometry" />
        </mxCell>
        <mxCell id="-slxVZkrEu4Ym89tPLpN-40" value="&lt;p style=&quot;margin:0px;margin-top:4px;text-align:center;&quot;&gt;&lt;b&gt;EnterApp&lt;/b&gt;&lt;/p&gt;&lt;hr size=&quot;1&quot; style=&quot;border-style:solid;&quot;&gt;&lt;p style=&quot;margin:0px;margin-left:4px;&quot;&gt;- user: User&lt;/p&gt;&lt;hr size=&quot;1&quot; style=&quot;border-style:solid;&quot;&gt;&lt;p style=&quot;margin:0px;margin-left:4px;&quot;&gt;- ButtonExit_Click(object sender, EventArgs e): void&lt;/p&gt;&lt;p style=&quot;margin:0px;margin-left:4px;&quot;&gt;- ButtonLogin_Click(object sender, EventArgs e): async void&lt;br&gt;&lt;/p&gt;&lt;p style=&quot;margin:0px;margin-left:4px;&quot;&gt;&lt;br&gt;&lt;/p&gt;" style="verticalAlign=top;align=left;overflow=fill;html=1;whiteSpace=wrap;" vertex="1" parent="1">
          <mxGeometry x="100" y="830" width="430" height="100" as="geometry" />
        </mxCell>
        <mxCell id="-slxVZkrEu4Ym89tPLpN-41" value="&lt;p style=&quot;margin:0px;margin-top:4px;text-align:center;&quot;&gt;&lt;b&gt;ManagerMenu&lt;/b&gt;&lt;/p&gt;&lt;p style=&quot;margin:0px;margin-left:4px;&quot;&gt;- user: User&lt;/p&gt;&lt;hr size=&quot;1&quot; style=&quot;border-style:solid;&quot;&gt;&lt;p style=&quot;margin:0px;margin-left:4px;&quot;&gt;- ButtonExit_Click(object sender, EventArgs e): void&lt;/p&gt;&lt;p style=&quot;margin:0px;margin-left:4px;&quot;&gt;-&amp;nbsp;buttonEmpAcc_Click(object sender, EventArgs e): async void&lt;/p&gt;&lt;p style=&quot;margin:0px;margin-left:4px;&quot;&gt;-&amp;nbsp;ButtonShowTickets_Click(object sender, EventArgs e): async void&lt;/p&gt;&lt;p style=&quot;margin:0px;margin-left:4px;&quot;&gt;-&amp;nbsp;ButtonShowSchedule_Click(object sender, EventArgs e): async void&lt;/p&gt;&lt;p style=&quot;margin: 0px 0px 0px 4px;&quot;&gt;-&amp;nbsp;ButtonShowTrainers_Click(object sender, EventArgs e): async void&lt;/p&gt;&lt;p style=&quot;margin: 0px 0px 0px 4px;&quot;&gt;-&amp;nbsp;ButtonShowClients_Click(object sender, EventArgs e): async void&lt;/p&gt;&lt;p style=&quot;margin: 0px 0px 0px 4px;&quot;&gt;-&amp;nbsp;ButtonManageTickets_Click(object sender, EventArgs e): async void&lt;/p&gt;&lt;p style=&quot;margin: 0px 0px 0px 4px;&quot;&gt;-&amp;nbsp;ButtonManageSchedule_Click(object sender, EventArgs e): async void&lt;/p&gt;&lt;p style=&quot;margin: 0px 0px 0px 4px;&quot;&gt;-&amp;nbsp;ButtonManageClients_Click(object sender, EventArgs e): async void&lt;/p&gt;&lt;p style=&quot;margin:0px;margin-left:4px;&quot;&gt;&lt;br&gt;&lt;/p&gt;" style="verticalAlign=top;align=left;overflow=fill;html=1;whiteSpace=wrap;" vertex="1" parent="1">
          <mxGeometry x="100" y="960" width="430" height="180" as="geometry" />
        </mxCell>
        <mxCell id="-slxVZkrEu4Ym89tPLpN-42" value="&lt;p style=&quot;margin:0px;margin-top:4px;text-align:center;&quot;&gt;&lt;b&gt;ShowAbonements&lt;/b&gt;&lt;/p&gt;&lt;hr size=&quot;1&quot; style=&quot;border-style:solid;&quot;&gt;&lt;p style=&quot;margin:0px;margin-left:4px;&quot;&gt;&lt;br&gt;&lt;/p&gt;&lt;hr size=&quot;1&quot; style=&quot;border-style:solid;&quot;&gt;&lt;p style=&quot;margin:0px;margin-left:4px;&quot;&gt;- ButtonExit_Click(object sender, EventArgs e): void&lt;/p&gt;&lt;p style=&quot;margin:0px;margin-left:4px;&quot;&gt;+ InitAndFillTickets(): async void&lt;br&gt;&lt;/p&gt;&lt;p style=&quot;margin:0px;margin-left:4px;&quot;&gt;&lt;br&gt;&lt;/p&gt;" style="verticalAlign=top;align=left;overflow=fill;html=1;whiteSpace=wrap;" vertex="1" parent="1">
          <mxGeometry x="100" y="1169" width="430" height="100" as="geometry" />
        </mxCell>
        <mxCell id="-slxVZkrEu4Ym89tPLpN-43" value="&lt;p style=&quot;margin:0px;margin-top:4px;text-align:center;&quot;&gt;&lt;b&gt;ShowClients&lt;/b&gt;&lt;/p&gt;&lt;hr size=&quot;1&quot; style=&quot;border-style:solid;&quot;&gt;&lt;p style=&quot;margin:0px;margin-left:4px;&quot;&gt;&lt;br&gt;&lt;/p&gt;&lt;hr size=&quot;1&quot; style=&quot;border-style:solid;&quot;&gt;&lt;p style=&quot;margin:0px;margin-left:4px;&quot;&gt;- ButtonExit_Click(object sender, EventArgs e): void&lt;/p&gt;&lt;p style=&quot;margin:0px;margin-left:4px;&quot;&gt;+ LoadClients(): async void&lt;br&gt;&lt;/p&gt;&lt;p style=&quot;margin:0px;margin-left:4px;&quot;&gt;- ButtonFindTicket_Click(object sender, EventArgs e): void&lt;br&gt;&lt;/p&gt;&lt;p style=&quot;margin:0px;margin-left:4px;&quot;&gt;+&amp;nbsp;FindTicket(): async void&lt;/p&gt;&lt;p style=&quot;margin:0px;margin-left:4px;&quot;&gt;&lt;br&gt;&lt;/p&gt;" style="verticalAlign=top;align=left;overflow=fill;html=1;whiteSpace=wrap;" vertex="1" parent="1">
          <mxGeometry x="100" y="1300" width="430" height="130" as="geometry" />
        </mxCell>
        <mxCell id="-slxVZkrEu4Ym89tPLpN-44" value="&lt;p style=&quot;margin:0px;margin-top:4px;text-align:center;&quot;&gt;&lt;b&gt;ShowSchedule&lt;/b&gt;&lt;/p&gt;&lt;hr size=&quot;1&quot; style=&quot;border-style:solid;&quot;&gt;&lt;p style=&quot;margin:0px;margin-left:4px;&quot;&gt;- user: User&lt;/p&gt;&lt;hr size=&quot;1&quot; style=&quot;border-style:solid;&quot;&gt;&lt;p style=&quot;margin:0px;margin-left:4px;&quot;&gt;- ButtonExit_Click(object sender, EventArgs e): void&lt;/p&gt;&lt;p style=&quot;margin:0px;margin-left:4px;&quot;&gt;+ LoadSchedule(bool is_trainer): async void&lt;br&gt;&lt;/p&gt;&lt;p style=&quot;margin:0px;margin-left:4px;&quot;&gt;- ButtonRefreshTable_Click(object sender, EventArgs e): void&lt;br&gt;&lt;/p&gt;&lt;p style=&quot;margin:0px;margin-left:4px;&quot;&gt;- ButtonTrainerSchedule_Click(object sender, EventArgs e): async void&lt;/p&gt;&lt;p style=&quot;margin:0px;margin-left:4px;&quot;&gt;&lt;br&gt;&lt;/p&gt;" style="verticalAlign=top;align=left;overflow=fill;html=1;whiteSpace=wrap;" vertex="1" parent="1">
          <mxGeometry x="100" y="1470" width="430" height="130" as="geometry" />
        </mxCell>
        <mxCell id="-slxVZkrEu4Ym89tPLpN-45" value="&lt;p style=&quot;margin:0px;margin-top:4px;text-align:center;&quot;&gt;&lt;b&gt;ShowTrainers&lt;/b&gt;&lt;/p&gt;&lt;hr size=&quot;1&quot; style=&quot;border-style:solid;&quot;&gt;&lt;p style=&quot;margin:0px;margin-left:4px;&quot;&gt;&lt;br&gt;&lt;/p&gt;&lt;hr size=&quot;1&quot; style=&quot;border-style:solid;&quot;&gt;&lt;p style=&quot;margin:0px;margin-left:4px;&quot;&gt;- ButtonExit_Click(object sender, EventArgs e): void&lt;/p&gt;&lt;p style=&quot;margin:0px;margin-left:4px;&quot;&gt;+ LoadTrainers(): async void&lt;br&gt;&lt;/p&gt;&lt;p style=&quot;margin:0px;margin-left:4px;&quot;&gt;- ButtonRefreshTable_Click(object sender, EventArgs e): void&lt;br&gt;&lt;/p&gt;&lt;p style=&quot;margin:0px;margin-left:4px;&quot;&gt;- ButtonTrainerSchedule_Click(object sender, EventArgs e): async void&lt;/p&gt;&lt;p style=&quot;margin:0px;margin-left:4px;&quot;&gt;&lt;br&gt;&lt;/p&gt;" style="verticalAlign=top;align=left;overflow=fill;html=1;whiteSpace=wrap;" vertex="1" parent="1">
          <mxGeometry x="100" y="1630" width="430" height="130" as="geometry" />
        </mxCell>
        <mxCell id="-slxVZkrEu4Ym89tPLpN-46" value="&lt;p style=&quot;margin:0px;margin-top:4px;text-align:center;&quot;&gt;&lt;b&gt;TrainerMenu&lt;/b&gt;&lt;/p&gt;&lt;hr size=&quot;1&quot; style=&quot;border-style:solid;&quot;&gt;&lt;p style=&quot;margin:0px;margin-left:4px;&quot;&gt;- user: User&lt;/p&gt;&lt;hr size=&quot;1&quot; style=&quot;border-style:solid;&quot;&gt;&lt;p style=&quot;margin:0px;margin-left:4px;&quot;&gt;- ButtonExit_Click(object sender, EventArgs e): void&lt;/p&gt;&lt;p style=&quot;margin:0px;margin-left:4px;&quot;&gt;- ButtonShowAcc_Click(object sender, EventArgs e): async void&lt;br&gt;&lt;/p&gt;&lt;p style=&quot;margin:0px;margin-left:4px;&quot;&gt;- ButtonSchedule_Click(object sender, EventArgs e): async void&lt;/p&gt;&lt;p style=&quot;margin:0px;margin-left:4px;&quot;&gt;&lt;br&gt;&lt;/p&gt;" style="verticalAlign=top;align=left;overflow=fill;html=1;whiteSpace=wrap;" vertex="1" parent="1">
          <mxGeometry x="100" y="1790" width="430" height="110" as="geometry" />
        </mxCell>
        <mxCell id="-slxVZkrEu4Ym89tPLpN-47" value="&lt;p style=&quot;margin:0px;margin-top:4px;text-align:center;&quot;&gt;&lt;b&gt;ManageAbonements&lt;/b&gt;&lt;/p&gt;&lt;hr size=&quot;1&quot; style=&quot;border-style:solid;&quot;&gt;&lt;p style=&quot;margin:0px;margin-left:4px;&quot;&gt;- user: User&lt;/p&gt;&lt;p style=&quot;margin:0px;margin-left:4px;&quot;&gt;- mode: Mode&lt;/p&gt;&lt;hr size=&quot;1&quot; style=&quot;border-style:solid;&quot;&gt;&lt;p style=&quot;margin:0px;margin-left:4px;&quot;&gt;- ButtonExit_Click(object sender, EventArgs e): void&lt;/p&gt;&lt;p style=&quot;margin:0px;margin-left:4px;&quot;&gt;- DeleteMenuFlyoutItem_Click(object sender, EventArgs e): async void&lt;br&gt;&lt;/p&gt;&lt;p style=&quot;margin:0px;margin-left:4px;&quot;&gt;- AddMenuFlyoutItem_Click(object sender, EventArgs e): async void&lt;/p&gt;&lt;p style=&quot;margin: 0px 0px 0px 4px;&quot;&gt;- UpdateMenuFlyoutItem_Click(object sender, EventArgs e): async void&lt;br&gt;&lt;/p&gt;&lt;p style=&quot;margin: 0px 0px 0px 4px;&quot;&gt;- ButtonFindTicket_Click(object sender, EventArgs e): async void&lt;/p&gt;&lt;p style=&quot;margin: 0px 0px 0px 4px;&quot;&gt;- ButtonEdit_Click(object sender, EventArgs e): async void&lt;br&gt;&lt;/p&gt;&lt;p style=&quot;margin: 0px 0px 0px 4px;&quot;&gt;- TextBoxTicketCode_TextChanged(object sender, EventArgs e): async void&lt;/p&gt;&lt;p style=&quot;margin: 0px 0px 0px 4px;&quot;&gt;+ LoadManageTicketsInfo(): async void&lt;br&gt;&lt;/p&gt;&lt;p style=&quot;margin: 0px 0px 0px 4px;&quot;&gt;+ LoadSingleTicketInfo(): async void&lt;/p&gt;&lt;p style=&quot;margin: 0px 0px 0px 4px;&quot;&gt;+ UpdateTicket(): async void&lt;br&gt;&lt;/p&gt;&lt;p style=&quot;margin: 0px 0px 0px 4px;&quot;&gt;+ DeleteTicket(): async void&lt;/p&gt;&lt;p style=&quot;margin: 0px 0px 0px 4px;&quot;&gt;+ AddTicket(): async void&lt;/p&gt;&lt;p style=&quot;margin: 0px 0px 0px 4px;&quot;&gt;&lt;br&gt;&lt;/p&gt;&lt;p style=&quot;margin:0px;margin-left:4px;&quot;&gt;&lt;br&gt;&lt;/p&gt;" style="verticalAlign=top;align=left;overflow=fill;html=1;whiteSpace=wrap;" vertex="1" parent="1">
          <mxGeometry x="100" y="1940" width="430" height="250" as="geometry" />
        </mxCell>
        <mxCell id="-slxVZkrEu4Ym89tPLpN-48" value="&lt;p style=&quot;margin:0px;margin-top:4px;text-align:center;&quot;&gt;&lt;b&gt;ManageSchedule&lt;/b&gt;&lt;/p&gt;&lt;hr size=&quot;1&quot; style=&quot;border-style:solid;&quot;&gt;&lt;p style=&quot;margin:0px;margin-left:4px;&quot;&gt;- user: User&lt;/p&gt;&lt;p style=&quot;margin:0px;margin-left:4px;&quot;&gt;- trainers: List&amp;lt;Trainer&amp;gt;&lt;/p&gt;&lt;p style=&quot;margin:0px;margin-left:4px;&quot;&gt;- mode: Mode&lt;/p&gt;&lt;hr size=&quot;1&quot; style=&quot;border-style:solid;&quot;&gt;&lt;p style=&quot;margin:0px;margin-left:4px;&quot;&gt;- ButtonExit_Click(object sender, EventArgs e): void&lt;/p&gt;&lt;p style=&quot;margin:0px;margin-left:4px;&quot;&gt;- DeleteMenuFlyoutItem_Click(object sender, EventArgs e): async void&lt;br&gt;&lt;/p&gt;&lt;p style=&quot;margin:0px;margin-left:4px;&quot;&gt;- AddMenuFlyoutItem_Click(object sender, EventArgs e): async void&lt;/p&gt;&lt;p style=&quot;margin: 0px 0px 0px 4px;&quot;&gt;- UpdateMenuFlyoutItem_Click(object sender, EventArgs e): async void&lt;br&gt;&lt;/p&gt;&lt;p style=&quot;margin: 0px 0px 0px 4px;&quot;&gt;- ButtonFindSchedule_Click(object sender, EventArgs e): async void&lt;/p&gt;&lt;p style=&quot;margin: 0px 0px 0px 4px;&quot;&gt;- ButtonEdit_Click(object sender, EventArgs e): async void&lt;br&gt;&lt;/p&gt;&lt;p style=&quot;margin: 0px 0px 0px 4px;&quot;&gt;- TextBoxScheduleCode_TextChanged(object sender, EventArgs e): async void&lt;/p&gt;&lt;p style=&quot;margin: 0px 0px 0px 4px;&quot;&gt;+ LoadManageScheduleInfo(): async void&lt;br&gt;&lt;/p&gt;&lt;p style=&quot;margin: 0px 0px 0px 4px;&quot;&gt;+ LoadSingleScheduleInfo(): async void&lt;/p&gt;&lt;p style=&quot;margin: 0px 0px 0px 4px;&quot;&gt;+ UpdateSchedule(): async void&lt;br&gt;&lt;/p&gt;&lt;p style=&quot;margin: 0px 0px 0px 4px;&quot;&gt;+ DeleteSchedule(): async void&lt;/p&gt;&lt;p style=&quot;margin: 0px 0px 0px 4px;&quot;&gt;+ AddSchedule(): async void&lt;/p&gt;&lt;p style=&quot;margin: 0px 0px 0px 4px;&quot;&gt;+&amp;nbsp;DateCorrectionChecker(): bool&lt;br&gt;&lt;/p&gt;&lt;p style=&quot;margin: 0px 0px 0px 4px;&quot;&gt;&lt;br&gt;&lt;/p&gt;&lt;p style=&quot;margin:0px;margin-left:4px;&quot;&gt;&lt;br&gt;&lt;/p&gt;" style="verticalAlign=top;align=left;overflow=fill;html=1;whiteSpace=wrap;" vertex="1" parent="1">
          <mxGeometry x="100" y="2230" width="430" height="280" as="geometry" />
        </mxCell>
        <mxCell id="-slxVZkrEu4Ym89tPLpN-49" value="&lt;p style=&quot;margin:0px;margin-top:4px;text-align:center;&quot;&gt;&lt;b&gt;ManageUsers&lt;/b&gt;&lt;/p&gt;&lt;hr size=&quot;1&quot; style=&quot;border-style:solid;&quot;&gt;&lt;p style=&quot;margin:0px;margin-left:4px;&quot;&gt;- user: User&lt;/p&gt;&lt;p style=&quot;margin:0px;margin-left:4px;&quot;&gt;- mode: Mode&lt;/p&gt;&lt;hr size=&quot;1&quot; style=&quot;border-style:solid;&quot;&gt;&lt;p style=&quot;margin:0px;margin-left:4px;&quot;&gt;- ButtonExit_Click(object sender, EventArgs e): void&lt;/p&gt;&lt;p style=&quot;margin:0px;margin-left:4px;&quot;&gt;- DeleteMenuFlyoutItem_Click(object sender, EventArgs e): async void&lt;br&gt;&lt;/p&gt;&lt;p style=&quot;margin:0px;margin-left:4px;&quot;&gt;- AddMenuFlyoutItem_Click(object sender, EventArgs e): async void&lt;/p&gt;&lt;p style=&quot;margin: 0px 0px 0px 4px;&quot;&gt;- UpdateMenuFlyoutItem_Click(object sender, EventArgs e): async void&lt;br&gt;&lt;/p&gt;&lt;p style=&quot;margin: 0px 0px 0px 4px;&quot;&gt;- ButtonFindUser_Click(object sender, EventArgs e): async void&lt;/p&gt;&lt;p style=&quot;margin: 0px 0px 0px 4px;&quot;&gt;- ButtonEdit_Click(object sender, EventArgs e): async void&lt;br&gt;&lt;/p&gt;&lt;p style=&quot;margin: 0px 0px 0px 4px;&quot;&gt;- TextBoxUserCode_TextChanged(object sender, EventArgs e): async void&lt;/p&gt;&lt;p style=&quot;margin: 0px 0px 0px 4px;&quot;&gt;-&amp;nbsp;PickerUserRoles_TextChanged(object sender, EventArgs e): async void&lt;/p&gt;&lt;p style=&quot;margin: 0px 0px 0px 4px;&quot;&gt;+ LoadOnlyClient(): async void&lt;br&gt;&lt;/p&gt;&lt;p style=&quot;margin: 0px 0px 0px 4px;&quot;&gt;+ LoadUser(): async void&lt;/p&gt;&lt;p style=&quot;margin: 0px 0px 0px 4px;&quot;&gt;+ UpdateUser(): async void&lt;br&gt;&lt;/p&gt;&lt;p style=&quot;margin: 0px 0px 0px 4px;&quot;&gt;+ DeleteUser(): async void&lt;/p&gt;&lt;p style=&quot;margin: 0px 0px 0px 4px;&quot;&gt;+ AddUser(): async void&lt;/p&gt;&lt;p style=&quot;margin: 0px 0px 0px 4px;&quot;&gt;+ UpdateClient(): async void&lt;br&gt;&lt;/p&gt;&lt;p style=&quot;margin: 0px 0px 0px 4px;&quot;&gt;+ DeleteClient(): async void&lt;/p&gt;&lt;p style=&quot;margin: 0px 0px 0px 4px;&quot;&gt;+ AddClient(): async void&lt;/p&gt;&lt;p style=&quot;margin: 0px 0px 0px 4px;&quot;&gt;+&amp;nbsp;LoadRoles(): async void&lt;/p&gt;&lt;p style=&quot;margin: 0px 0px 0px 4px;&quot;&gt;+&amp;nbsp;PhoneCheck(str: string): string&lt;/p&gt;&lt;p style=&quot;margin: 0px 0px 0px 4px;&quot;&gt;+ CheckInput(): async Task&amp;lt;bool&amp;gt;&lt;/p&gt;&lt;p style=&quot;margin:0px;margin-left:4px;&quot;&gt;&lt;br&gt;&lt;/p&gt;" style="verticalAlign=top;align=left;overflow=fill;html=1;whiteSpace=wrap;" vertex="1" parent="1">
          <mxGeometry x="100" y="2550" width="430" height="350" as="geometry" />
        </mxCell>
        <mxCell id="-slxVZkrEu4Ym89tPLpN-50" value="Trainer" style="swimlane;fontStyle=0;childLayout=stackLayout;horizontal=1;startSize=26;fillColor=none;horizontalStack=0;resizeParent=1;resizeParentMax=0;resizeLast=0;collapsible=1;marginBottom=0;whiteSpace=wrap;html=1;" vertex="1" parent="1">
          <mxGeometry x="-520" y="2220" width="140" height="104" as="geometry" />
        </mxCell>
        <mxCell id="-slxVZkrEu4Ym89tPLpN-51" value="- name: string" style="text;strokeColor=none;fillColor=none;align=left;verticalAlign=top;spacingLeft=4;spacingRight=4;overflow=hidden;rotatable=0;points=[[0,0.5],[1,0.5]];portConstraint=eastwest;whiteSpace=wrap;html=1;" vertex="1" parent="-slxVZkrEu4Ym89tPLpN-50">
          <mxGeometry y="26" width="140" height="26" as="geometry" />
        </mxCell>
        <mxCell id="-slxVZkrEu4Ym89tPLpN-52" value="- surname: string" style="text;strokeColor=none;fillColor=none;align=left;verticalAlign=top;spacingLeft=4;spacingRight=4;overflow=hidden;rotatable=0;points=[[0,0.5],[1,0.5]];portConstraint=eastwest;whiteSpace=wrap;html=1;" vertex="1" parent="-slxVZkrEu4Ym89tPLpN-50">
          <mxGeometry y="52" width="140" height="26" as="geometry" />
        </mxCell>
        <mxCell id="-slxVZkrEu4Ym89tPLpN-53" value="- middlename: string" style="text;strokeColor=none;fillColor=none;align=left;verticalAlign=top;spacingLeft=4;spacingRight=4;overflow=hidden;rotatable=0;points=[[0,0.5],[1,0.5]];portConstraint=eastwest;whiteSpace=wrap;html=1;" vertex="1" parent="-slxVZkrEu4Ym89tPLpN-50">
          <mxGeometry y="78" width="140" height="26" as="geometry" />
        </mxCell>
        <mxCell id="-slxVZkrEu4Ym89tPLpN-54" value="EnumClass Mode" style="swimlane;fontStyle=0;childLayout=stackLayout;horizontal=1;startSize=26;fillColor=none;horizontalStack=0;resizeParent=1;resizeParentMax=0;resizeLast=0;collapsible=1;marginBottom=0;whiteSpace=wrap;html=1;" vertex="1" parent="1">
          <mxGeometry x="-730" y="2100" width="140" height="52" as="geometry" />
        </mxCell>
        <mxCell id="-slxVZkrEu4Ym89tPLpN-58" value="EnumClass Roles" style="swimlane;fontStyle=0;childLayout=stackLayout;horizontal=1;startSize=26;fillColor=none;horizontalStack=0;resizeParent=1;resizeParentMax=0;resizeLast=0;collapsible=1;marginBottom=0;whiteSpace=wrap;html=1;" vertex="1" parent="1">
          <mxGeometry x="-240" y="151" width="140" height="52" as="geometry" />
        </mxCell>
        <mxCell id="-slxVZkrEu4Ym89tPLpN-61" value="EnumClass ServerRequests" style="swimlane;fontStyle=0;childLayout=stackLayout;horizontal=1;startSize=26;fillColor=none;horizontalStack=0;resizeParent=1;resizeParentMax=0;resizeLast=0;collapsible=1;marginBottom=0;whiteSpace=wrap;html=1;" vertex="1" parent="1">
          <mxGeometry x="-250" y="270" width="160" height="52" as="geometry" />
        </mxCell>
        <mxCell id="-slxVZkrEu4Ym89tPLpN-64" value="" style="endArrow=block;endSize=16;endFill=0;html=1;rounded=0;entryX=0;entryY=0.5;entryDx=0;entryDy=0;exitX=1;exitY=0.5;exitDx=0;exitDy=0;" edge="1" parent="1" target="-slxVZkrEu4Ym89tPLpN-28">
          <mxGeometry width="160" relative="1" as="geometry">
            <mxPoint x="530" y="2399" as="sourcePoint" />
            <mxPoint x="660" y="130" as="targetPoint" />
            <Array as="points">
              <mxPoint x="600" y="2400" />
              <mxPoint x="600" y="456" />
            </Array>
          </mxGeometry>
        </mxCell>
        <mxCell id="-slxVZkrEu4Ym89tPLpN-65" value="" style="endArrow=block;endSize=16;endFill=0;html=1;rounded=0;entryX=0;entryY=0.5;entryDx=0;entryDy=0;exitX=1;exitY=0.5;exitDx=0;exitDy=0;" edge="1" parent="1" target="-slxVZkrEu4Ym89tPLpN-28">
          <mxGeometry width="160" relative="1" as="geometry">
            <mxPoint x="530" y="2073" as="sourcePoint" />
            <mxPoint x="660" y="130" as="targetPoint" />
            <Array as="points">
              <mxPoint x="600" y="2074" />
              <mxPoint x="600" y="456" />
            </Array>
          </mxGeometry>
        </mxCell>
        <mxCell id="-slxVZkrEu4Ym89tPLpN-66" value="" style="endArrow=block;endSize=16;endFill=0;html=1;rounded=0;entryX=0;entryY=0.5;entryDx=0;entryDy=0;exitX=1;exitY=0.5;exitDx=0;exitDy=0;" edge="1" parent="1" target="-slxVZkrEu4Ym89tPLpN-28">
          <mxGeometry width="160" relative="1" as="geometry">
            <mxPoint x="530" y="1847" as="sourcePoint" />
            <mxPoint x="660" y="230" as="targetPoint" />
            <Array as="points">
              <mxPoint x="600" y="1848" />
              <mxPoint x="600" y="456" />
            </Array>
          </mxGeometry>
        </mxCell>
        <mxCell id="-slxVZkrEu4Ym89tPLpN-67" value="" style="endArrow=block;endSize=16;endFill=0;html=1;rounded=0;entryX=0;entryY=0.5;entryDx=0;entryDy=0;exitX=1;exitY=0.5;exitDx=0;exitDy=0;" edge="1" parent="1" target="-slxVZkrEu4Ym89tPLpN-28">
          <mxGeometry width="160" relative="1" as="geometry">
            <mxPoint x="530" y="1721" as="sourcePoint" />
            <mxPoint x="660" y="330" as="targetPoint" />
            <Array as="points">
              <mxPoint x="600" y="1722" />
              <mxPoint x="600" y="456" />
            </Array>
          </mxGeometry>
        </mxCell>
        <mxCell id="-slxVZkrEu4Ym89tPLpN-68" value="" style="endArrow=block;endSize=16;endFill=0;html=1;rounded=0;entryX=0;entryY=0.5;entryDx=0;entryDy=0;exitX=1;exitY=0.5;exitDx=0;exitDy=0;" edge="1" parent="1" target="-slxVZkrEu4Ym89tPLpN-28">
          <mxGeometry width="160" relative="1" as="geometry">
            <mxPoint x="530" y="1559" as="sourcePoint" />
            <mxPoint x="660" y="294" as="targetPoint" />
            <Array as="points">
              <mxPoint x="600" y="1560" />
              <mxPoint x="600" y="456" />
            </Array>
          </mxGeometry>
        </mxCell>
        <mxCell id="-slxVZkrEu4Ym89tPLpN-69" value="" style="endArrow=block;endSize=16;endFill=0;html=1;rounded=0;entryX=0;entryY=0.5;entryDx=0;entryDy=0;exitX=1;exitY=0.5;exitDx=0;exitDy=0;" edge="1" parent="1" target="-slxVZkrEu4Ym89tPLpN-28">
          <mxGeometry width="160" relative="1" as="geometry">
            <mxPoint x="530" y="1373" as="sourcePoint" />
            <mxPoint x="660" y="270" as="targetPoint" />
            <Array as="points">
              <mxPoint x="600" y="1374" />
              <mxPoint x="600" y="456" />
            </Array>
          </mxGeometry>
        </mxCell>
        <mxCell id="-slxVZkrEu4Ym89tPLpN-70" value="" style="endArrow=block;endSize=16;endFill=0;html=1;rounded=0;entryX=0;entryY=0.5;entryDx=0;entryDy=0;exitX=1;exitY=0.5;exitDx=0;exitDy=0;" edge="1" parent="1" target="-slxVZkrEu4Ym89tPLpN-28">
          <mxGeometry width="160" relative="1" as="geometry">
            <mxPoint x="530" y="1227" as="sourcePoint" />
            <mxPoint x="660" y="310" as="targetPoint" />
            <Array as="points">
              <mxPoint x="600" y="1228" />
              <mxPoint x="600" y="456" />
            </Array>
          </mxGeometry>
        </mxCell>
        <mxCell id="-slxVZkrEu4Ym89tPLpN-71" value="" style="endArrow=block;endSize=16;endFill=0;html=1;rounded=0;entryX=0;entryY=0.5;entryDx=0;entryDy=0;exitX=1;exitY=0.5;exitDx=0;exitDy=0;" edge="1" parent="1" target="-slxVZkrEu4Ym89tPLpN-28">
          <mxGeometry width="160" relative="1" as="geometry">
            <mxPoint x="530" y="1065" as="sourcePoint" />
            <mxPoint x="660" y="294" as="targetPoint" />
            <Array as="points">
              <mxPoint x="600" y="1066" />
              <mxPoint x="600" y="456" />
            </Array>
          </mxGeometry>
        </mxCell>
        <mxCell id="-slxVZkrEu4Ym89tPLpN-72" value="" style="endArrow=block;endSize=16;endFill=0;html=1;rounded=0;entryX=0;entryY=0.5;entryDx=0;entryDy=0;exitX=1;exitY=0.5;exitDx=0;exitDy=0;" edge="1" parent="1" target="-slxVZkrEu4Ym89tPLpN-28">
          <mxGeometry width="160" relative="1" as="geometry">
            <mxPoint x="530" y="747" as="sourcePoint" />
            <mxPoint x="660" y="138" as="targetPoint" />
            <Array as="points">
              <mxPoint x="600" y="748" />
              <mxPoint x="600" y="456" />
            </Array>
          </mxGeometry>
        </mxCell>
        <mxCell id="-slxVZkrEu4Ym89tPLpN-73" value="" style="endArrow=block;endSize=16;endFill=0;html=1;rounded=0;entryX=0;entryY=0.5;entryDx=0;entryDy=0;exitX=1;exitY=0.5;exitDx=0;exitDy=0;" edge="1" parent="1" target="-slxVZkrEu4Ym89tPLpN-28">
          <mxGeometry width="160" relative="1" as="geometry">
            <mxPoint x="530" y="601" as="sourcePoint" />
            <mxPoint x="660" y="310" as="targetPoint" />
            <Array as="points">
              <mxPoint x="600" y="602" />
              <mxPoint x="600" y="456" />
            </Array>
          </mxGeometry>
        </mxCell>
        <mxCell id="-slxVZkrEu4Ym89tPLpN-74" value="" style="endArrow=block;endSize=16;endFill=0;html=1;rounded=0;entryX=0;entryY=0.5;entryDx=0;entryDy=0;exitX=1;exitY=0.5;exitDx=0;exitDy=0;" edge="1" parent="1" target="-slxVZkrEu4Ym89tPLpN-28">
          <mxGeometry width="160" relative="1" as="geometry">
            <mxPoint x="530" y="455" as="sourcePoint" />
            <mxPoint x="660" y="310" as="targetPoint" />
            <Array as="points">
              <mxPoint x="600" y="456" />
            </Array>
          </mxGeometry>
        </mxCell>
        <mxCell id="-slxVZkrEu4Ym89tPLpN-75" value="" style="endArrow=none;html=1;edgeStyle=orthogonalEdgeStyle;rounded=0;exitX=0;exitY=0.25;exitDx=0;exitDy=0;entryX=1;entryY=0.5;entryDx=0;entryDy=0;" edge="1" parent="1" source="-slxVZkrEu4Ym89tPLpN-47" target="-slxVZkrEu4Ym89tPLpN-54">
          <mxGeometry relative="1" as="geometry">
            <mxPoint x="-80" y="2050" as="sourcePoint" />
            <mxPoint x="80" y="2050" as="targetPoint" />
            <Array as="points">
              <mxPoint x="-550" y="2002" />
              <mxPoint x="-550" y="2126" />
            </Array>
          </mxGeometry>
        </mxCell>
        <mxCell id="-slxVZkrEu4Ym89tPLpN-76" value="parent" style="edgeLabel;resizable=0;html=1;align=left;verticalAlign=bottom;" connectable="0" vertex="1" parent="-slxVZkrEu4Ym89tPLpN-75">
          <mxGeometry x="-1" relative="1" as="geometry">
            <mxPoint x="-50" y="-2" as="offset" />
          </mxGeometry>
        </mxCell>
        <mxCell id="-slxVZkrEu4Ym89tPLpN-77" value="child" style="edgeLabel;resizable=0;html=1;align=right;verticalAlign=bottom;" connectable="0" vertex="1" parent="-slxVZkrEu4Ym89tPLpN-75">
          <mxGeometry x="1" relative="1" as="geometry">
            <mxPoint x="30" y="4" as="offset" />
          </mxGeometry>
        </mxCell>
        <mxCell id="-slxVZkrEu4Ym89tPLpN-78" value="" style="endArrow=none;html=1;edgeStyle=orthogonalEdgeStyle;rounded=0;exitX=0;exitY=0.5;exitDx=0;exitDy=0;entryX=1;entryY=0.5;entryDx=0;entryDy=0;" edge="1" parent="1" source="-slxVZkrEu4Ym89tPLpN-48" target="-slxVZkrEu4Ym89tPLpN-54">
          <mxGeometry relative="1" as="geometry">
            <mxPoint x="110" y="2013" as="sourcePoint" />
            <mxPoint x="-30" y="2150" as="targetPoint" />
            <Array as="points">
              <mxPoint x="-550" y="2370" />
              <mxPoint x="-550" y="2126" />
            </Array>
          </mxGeometry>
        </mxCell>
        <mxCell id="-slxVZkrEu4Ym89tPLpN-79" value="parent" style="edgeLabel;resizable=0;html=1;align=left;verticalAlign=bottom;" connectable="0" vertex="1" parent="-slxVZkrEu4Ym89tPLpN-78">
          <mxGeometry x="-1" relative="1" as="geometry">
            <mxPoint x="-50" as="offset" />
          </mxGeometry>
        </mxCell>
        <mxCell id="-slxVZkrEu4Ym89tPLpN-80" value="child" style="edgeLabel;resizable=0;html=1;align=right;verticalAlign=bottom;" connectable="0" vertex="1" parent="-slxVZkrEu4Ym89tPLpN-78">
          <mxGeometry x="1" relative="1" as="geometry">
            <mxPoint x="30" as="offset" />
          </mxGeometry>
        </mxCell>
        <mxCell id="-slxVZkrEu4Ym89tPLpN-81" value="" style="endArrow=none;html=1;edgeStyle=orthogonalEdgeStyle;rounded=0;exitX=0;exitY=0.5;exitDx=0;exitDy=0;entryX=1;entryY=0.5;entryDx=0;entryDy=0;" edge="1" parent="1" source="-slxVZkrEu4Ym89tPLpN-49" target="-slxVZkrEu4Ym89tPLpN-54">
          <mxGeometry relative="1" as="geometry">
            <mxPoint x="110" y="2380" as="sourcePoint" />
            <mxPoint x="-40" y="2180" as="targetPoint" />
            <Array as="points">
              <mxPoint x="-550" y="2725" />
              <mxPoint x="-550" y="2126" />
            </Array>
          </mxGeometry>
        </mxCell>
        <mxCell id="-slxVZkrEu4Ym89tPLpN-82" value="parent" style="edgeLabel;resizable=0;html=1;align=left;verticalAlign=bottom;" connectable="0" vertex="1" parent="-slxVZkrEu4Ym89tPLpN-81">
          <mxGeometry x="-1" relative="1" as="geometry">
            <mxPoint x="-50" as="offset" />
          </mxGeometry>
        </mxCell>
        <mxCell id="-slxVZkrEu4Ym89tPLpN-83" value="child" style="edgeLabel;resizable=0;html=1;align=right;verticalAlign=bottom;" connectable="0" vertex="1" parent="-slxVZkrEu4Ym89tPLpN-81">
          <mxGeometry x="1" relative="1" as="geometry">
            <mxPoint x="30" as="offset" />
          </mxGeometry>
        </mxCell>
        <mxCell id="-slxVZkrEu4Ym89tPLpN-84" value="" style="endArrow=none;html=1;edgeStyle=orthogonalEdgeStyle;rounded=0;exitX=0;exitY=0.25;exitDx=0;exitDy=0;entryX=1;entryY=0.25;entryDx=0;entryDy=0;" edge="1" parent="1" source="-slxVZkrEu4Ym89tPLpN-48" target="-slxVZkrEu4Ym89tPLpN-50">
          <mxGeometry relative="1" as="geometry">
            <mxPoint x="-110" y="2280" as="sourcePoint" />
            <mxPoint x="50" y="2280" as="targetPoint" />
            <Array as="points">
              <mxPoint x="-360" y="2300" />
              <mxPoint x="-360" y="2256" />
              <mxPoint x="-380" y="2256" />
            </Array>
          </mxGeometry>
        </mxCell>
        <mxCell id="-slxVZkrEu4Ym89tPLpN-85" value="parent" style="edgeLabel;resizable=0;html=1;align=left;verticalAlign=bottom;" connectable="0" vertex="1" parent="-slxVZkrEu4Ym89tPLpN-84">
          <mxGeometry x="-1" relative="1" as="geometry">
            <mxPoint x="-40" as="offset" />
          </mxGeometry>
        </mxCell>
        <mxCell id="-slxVZkrEu4Ym89tPLpN-86" value="child" style="edgeLabel;resizable=0;html=1;align=right;verticalAlign=bottom;" connectable="0" vertex="1" parent="-slxVZkrEu4Ym89tPLpN-84">
          <mxGeometry x="1" relative="1" as="geometry">
            <mxPoint x="30" as="offset" />
          </mxGeometry>
        </mxCell>
        <mxCell id="-slxVZkrEu4Ym89tPLpN-88" value="" style="endArrow=none;html=1;edgeStyle=orthogonalEdgeStyle;rounded=0;exitX=0;exitY=0.75;exitDx=0;exitDy=0;entryX=0;entryY=0.5;entryDx=0;entryDy=0;" edge="1" parent="1" source="-slxVZkrEu4Ym89tPLpN-49" target="-slxVZkrEu4Ym89tPLpN-3">
          <mxGeometry relative="1" as="geometry">
            <mxPoint y="260" as="sourcePoint" />
            <mxPoint x="150" y="260" as="targetPoint" />
          </mxGeometry>
        </mxCell>
        <mxCell id="-slxVZkrEu4Ym89tPLpN-89" value="parent" style="edgeLabel;resizable=0;html=1;align=left;verticalAlign=bottom;" connectable="0" vertex="1" parent="-slxVZkrEu4Ym89tPLpN-88">
          <mxGeometry x="-1" relative="1" as="geometry">
            <mxPoint x="-40" as="offset" />
          </mxGeometry>
        </mxCell>
        <mxCell id="-slxVZkrEu4Ym89tPLpN-90" value="child" style="edgeLabel;resizable=0;html=1;align=right;verticalAlign=bottom;" connectable="0" vertex="1" parent="-slxVZkrEu4Ym89tPLpN-88">
          <mxGeometry x="1" relative="1" as="geometry" />
        </mxCell>
        <mxCell id="-slxVZkrEu4Ym89tPLpN-94" value="" style="endArrow=none;html=1;edgeStyle=orthogonalEdgeStyle;rounded=0;exitX=0;exitY=0.75;exitDx=0;exitDy=0;entryX=0;entryY=0.5;entryDx=0;entryDy=0;" edge="1" parent="1" source="-slxVZkrEu4Ym89tPLpN-48" target="-slxVZkrEu4Ym89tPLpN-3">
          <mxGeometry relative="1" as="geometry">
            <mxPoint x="110" y="2823" as="sourcePoint" />
            <mxPoint x="20" y="135" as="targetPoint" />
          </mxGeometry>
        </mxCell>
        <mxCell id="-slxVZkrEu4Ym89tPLpN-95" value="parent" style="edgeLabel;resizable=0;html=1;align=left;verticalAlign=bottom;" connectable="0" vertex="1" parent="-slxVZkrEu4Ym89tPLpN-94">
          <mxGeometry x="-1" relative="1" as="geometry">
            <mxPoint x="-40" as="offset" />
          </mxGeometry>
        </mxCell>
        <mxCell id="-slxVZkrEu4Ym89tPLpN-96" value="child" style="edgeLabel;resizable=0;html=1;align=right;verticalAlign=bottom;" connectable="0" vertex="1" parent="-slxVZkrEu4Ym89tPLpN-94">
          <mxGeometry x="1" relative="1" as="geometry" />
        </mxCell>
        <mxCell id="-slxVZkrEu4Ym89tPLpN-97" value="" style="endArrow=none;html=1;edgeStyle=orthogonalEdgeStyle;rounded=0;exitX=0;exitY=0.75;exitDx=0;exitDy=0;entryX=0;entryY=0.5;entryDx=0;entryDy=0;" edge="1" parent="1" source="-slxVZkrEu4Ym89tPLpN-47" target="-slxVZkrEu4Ym89tPLpN-3">
          <mxGeometry relative="1" as="geometry">
            <mxPoint x="110" y="2450" as="sourcePoint" />
            <mxPoint x="20" y="135" as="targetPoint" />
          </mxGeometry>
        </mxCell>
        <mxCell id="-slxVZkrEu4Ym89tPLpN-98" value="parent" style="edgeLabel;resizable=0;html=1;align=left;verticalAlign=bottom;" connectable="0" vertex="1" parent="-slxVZkrEu4Ym89tPLpN-97">
          <mxGeometry x="-1" relative="1" as="geometry">
            <mxPoint x="-40" as="offset" />
          </mxGeometry>
        </mxCell>
        <mxCell id="-slxVZkrEu4Ym89tPLpN-99" value="child" style="edgeLabel;resizable=0;html=1;align=right;verticalAlign=bottom;" connectable="0" vertex="1" parent="-slxVZkrEu4Ym89tPLpN-97">
          <mxGeometry x="1" relative="1" as="geometry" />
        </mxCell>
        <mxCell id="-slxVZkrEu4Ym89tPLpN-100" value="" style="endArrow=none;html=1;edgeStyle=orthogonalEdgeStyle;rounded=0;exitX=0;exitY=0.5;exitDx=0;exitDy=0;entryX=0;entryY=0.5;entryDx=0;entryDy=0;" edge="1" parent="1" source="-slxVZkrEu4Ym89tPLpN-46" target="-slxVZkrEu4Ym89tPLpN-3">
          <mxGeometry relative="1" as="geometry">
            <mxPoint x="110" y="2138" as="sourcePoint" />
            <mxPoint x="20" y="135" as="targetPoint" />
          </mxGeometry>
        </mxCell>
        <mxCell id="-slxVZkrEu4Ym89tPLpN-101" value="parent" style="edgeLabel;resizable=0;html=1;align=left;verticalAlign=bottom;" connectable="0" vertex="1" parent="-slxVZkrEu4Ym89tPLpN-100">
          <mxGeometry x="-1" relative="1" as="geometry">
            <mxPoint x="-40" as="offset" />
          </mxGeometry>
        </mxCell>
        <mxCell id="-slxVZkrEu4Ym89tPLpN-102" value="child" style="edgeLabel;resizable=0;html=1;align=right;verticalAlign=bottom;" connectable="0" vertex="1" parent="-slxVZkrEu4Ym89tPLpN-100">
          <mxGeometry x="1" relative="1" as="geometry" />
        </mxCell>
        <mxCell id="-slxVZkrEu4Ym89tPLpN-106" value="" style="endArrow=none;html=1;edgeStyle=orthogonalEdgeStyle;rounded=0;exitX=0;exitY=0.5;exitDx=0;exitDy=0;entryX=0;entryY=0.5;entryDx=0;entryDy=0;" edge="1" parent="1" source="-slxVZkrEu4Ym89tPLpN-44" target="-slxVZkrEu4Ym89tPLpN-3">
          <mxGeometry relative="1" as="geometry">
            <mxPoint x="110" y="1738" as="sourcePoint" />
            <mxPoint x="20" y="135" as="targetPoint" />
          </mxGeometry>
        </mxCell>
        <mxCell id="-slxVZkrEu4Ym89tPLpN-107" value="parent" style="edgeLabel;resizable=0;html=1;align=left;verticalAlign=bottom;" connectable="0" vertex="1" parent="-slxVZkrEu4Ym89tPLpN-106">
          <mxGeometry x="-1" relative="1" as="geometry">
            <mxPoint x="-40" as="offset" />
          </mxGeometry>
        </mxCell>
        <mxCell id="-slxVZkrEu4Ym89tPLpN-108" value="child" style="edgeLabel;resizable=0;html=1;align=right;verticalAlign=bottom;" connectable="0" vertex="1" parent="-slxVZkrEu4Ym89tPLpN-106">
          <mxGeometry x="1" relative="1" as="geometry" />
        </mxCell>
        <mxCell id="-slxVZkrEu4Ym89tPLpN-115" value="" style="endArrow=none;html=1;edgeStyle=orthogonalEdgeStyle;rounded=0;exitX=0;exitY=0.5;exitDx=0;exitDy=0;entryX=0;entryY=0.5;entryDx=0;entryDy=0;" edge="1" parent="1" source="-slxVZkrEu4Ym89tPLpN-41" target="-slxVZkrEu4Ym89tPLpN-3">
          <mxGeometry relative="1" as="geometry">
            <mxPoint x="110" y="1229" as="sourcePoint" />
            <mxPoint x="20" y="135" as="targetPoint" />
          </mxGeometry>
        </mxCell>
        <mxCell id="-slxVZkrEu4Ym89tPLpN-116" value="parent" style="edgeLabel;resizable=0;html=1;align=left;verticalAlign=bottom;" connectable="0" vertex="1" parent="-slxVZkrEu4Ym89tPLpN-115">
          <mxGeometry x="-1" relative="1" as="geometry">
            <mxPoint x="-40" as="offset" />
          </mxGeometry>
        </mxCell>
        <mxCell id="-slxVZkrEu4Ym89tPLpN-117" value="child" style="edgeLabel;resizable=0;html=1;align=right;verticalAlign=bottom;" connectable="0" vertex="1" parent="-slxVZkrEu4Ym89tPLpN-115">
          <mxGeometry x="1" relative="1" as="geometry" />
        </mxCell>
        <mxCell id="-slxVZkrEu4Ym89tPLpN-118" value="" style="endArrow=none;html=1;edgeStyle=orthogonalEdgeStyle;rounded=0;exitX=0;exitY=0.5;exitDx=0;exitDy=0;entryX=0;entryY=0.5;entryDx=0;entryDy=0;" edge="1" parent="1" source="-slxVZkrEu4Ym89tPLpN-40" target="-slxVZkrEu4Ym89tPLpN-3">
          <mxGeometry relative="1" as="geometry">
            <mxPoint x="110" y="1060" as="sourcePoint" />
            <mxPoint x="20" y="135" as="targetPoint" />
          </mxGeometry>
        </mxCell>
        <mxCell id="-slxVZkrEu4Ym89tPLpN-119" value="parent" style="edgeLabel;resizable=0;html=1;align=left;verticalAlign=bottom;" connectable="0" vertex="1" parent="-slxVZkrEu4Ym89tPLpN-118">
          <mxGeometry x="-1" relative="1" as="geometry">
            <mxPoint x="-40" as="offset" />
          </mxGeometry>
        </mxCell>
        <mxCell id="-slxVZkrEu4Ym89tPLpN-120" value="child" style="edgeLabel;resizable=0;html=1;align=right;verticalAlign=bottom;" connectable="0" vertex="1" parent="-slxVZkrEu4Ym89tPLpN-118">
          <mxGeometry x="1" relative="1" as="geometry" />
        </mxCell>
        <mxCell id="-slxVZkrEu4Ym89tPLpN-121" value="" style="endArrow=none;html=1;edgeStyle=orthogonalEdgeStyle;rounded=0;exitX=0;exitY=0.5;exitDx=0;exitDy=0;entryX=0;entryY=0.5;entryDx=0;entryDy=0;" edge="1" parent="1" source="-slxVZkrEu4Ym89tPLpN-39" target="-slxVZkrEu4Ym89tPLpN-3">
          <mxGeometry relative="1" as="geometry">
            <mxPoint x="110" y="890" as="sourcePoint" />
            <mxPoint x="20" y="135" as="targetPoint" />
          </mxGeometry>
        </mxCell>
        <mxCell id="-slxVZkrEu4Ym89tPLpN-122" value="parent" style="edgeLabel;resizable=0;html=1;align=left;verticalAlign=bottom;" connectable="0" vertex="1" parent="-slxVZkrEu4Ym89tPLpN-121">
          <mxGeometry x="-1" relative="1" as="geometry">
            <mxPoint x="-40" as="offset" />
          </mxGeometry>
        </mxCell>
        <mxCell id="-slxVZkrEu4Ym89tPLpN-123" value="child" style="edgeLabel;resizable=0;html=1;align=right;verticalAlign=bottom;" connectable="0" vertex="1" parent="-slxVZkrEu4Ym89tPLpN-121">
          <mxGeometry x="1" relative="1" as="geometry" />
        </mxCell>
        <mxCell id="-slxVZkrEu4Ym89tPLpN-124" value="" style="endArrow=none;html=1;edgeStyle=orthogonalEdgeStyle;rounded=0;exitX=0;exitY=0.75;exitDx=0;exitDy=0;entryX=0;entryY=0.5;entryDx=0;entryDy=0;" edge="1" parent="1" source="-slxVZkrEu4Ym89tPLpN-37" target="-slxVZkrEu4Ym89tPLpN-3">
          <mxGeometry relative="1" as="geometry">
            <mxPoint x="110" y="750" as="sourcePoint" />
            <mxPoint x="20" y="135" as="targetPoint" />
          </mxGeometry>
        </mxCell>
        <mxCell id="-slxVZkrEu4Ym89tPLpN-125" value="parent" style="edgeLabel;resizable=0;html=1;align=left;verticalAlign=bottom;" connectable="0" vertex="1" parent="-slxVZkrEu4Ym89tPLpN-124">
          <mxGeometry x="-1" relative="1" as="geometry">
            <mxPoint x="-40" as="offset" />
          </mxGeometry>
        </mxCell>
        <mxCell id="-slxVZkrEu4Ym89tPLpN-126" value="child" style="edgeLabel;resizable=0;html=1;align=right;verticalAlign=bottom;" connectable="0" vertex="1" parent="-slxVZkrEu4Ym89tPLpN-124">
          <mxGeometry x="1" relative="1" as="geometry" />
        </mxCell>
        <mxCell id="-slxVZkrEu4Ym89tPLpN-127" value="" style="endArrow=none;html=1;edgeStyle=orthogonalEdgeStyle;rounded=0;exitX=0;exitY=0.5;exitDx=0;exitDy=0;entryX=0;entryY=0.5;entryDx=0;entryDy=0;" edge="1" parent="1" source="-slxVZkrEu4Ym89tPLpN-36" target="-slxVZkrEu4Ym89tPLpN-3">
          <mxGeometry relative="1" as="geometry">
            <mxPoint x="110" y="635" as="sourcePoint" />
            <mxPoint x="20" y="135" as="targetPoint" />
          </mxGeometry>
        </mxCell>
        <mxCell id="-slxVZkrEu4Ym89tPLpN-128" value="parent" style="edgeLabel;resizable=0;html=1;align=left;verticalAlign=bottom;" connectable="0" vertex="1" parent="-slxVZkrEu4Ym89tPLpN-127">
          <mxGeometry x="-1" relative="1" as="geometry">
            <mxPoint x="-40" as="offset" />
          </mxGeometry>
        </mxCell>
        <mxCell id="-slxVZkrEu4Ym89tPLpN-129" value="child" style="edgeLabel;resizable=0;html=1;align=right;verticalAlign=bottom;" connectable="0" vertex="1" parent="-slxVZkrEu4Ym89tPLpN-127">
          <mxGeometry x="1" relative="1" as="geometry" />
        </mxCell>
        <mxCell id="-slxVZkrEu4Ym89tPLpN-130" value="" style="endArrow=none;html=1;edgeStyle=orthogonalEdgeStyle;rounded=0;exitX=0;exitY=0.5;exitDx=0;exitDy=0;entryX=1;entryY=0.75;entryDx=0;entryDy=0;" edge="1" parent="1" source="-slxVZkrEu4Ym89tPLpN-42" target="-slxVZkrEu4Ym89tPLpN-58">
          <mxGeometry relative="1" as="geometry">
            <mxPoint x="50" y="230" as="sourcePoint" />
            <mxPoint x="-140" y="200" as="targetPoint" />
          </mxGeometry>
        </mxCell>
        <mxCell id="-slxVZkrEu4Ym89tPLpN-131" value="parent" style="edgeLabel;resizable=0;html=1;align=left;verticalAlign=bottom;" connectable="0" vertex="1" parent="-slxVZkrEu4Ym89tPLpN-130">
          <mxGeometry x="-1" relative="1" as="geometry">
            <mxPoint x="-40" as="offset" />
          </mxGeometry>
        </mxCell>
        <mxCell id="-slxVZkrEu4Ym89tPLpN-132" value="child" style="edgeLabel;resizable=0;html=1;align=right;verticalAlign=bottom;" connectable="0" vertex="1" parent="-slxVZkrEu4Ym89tPLpN-130">
          <mxGeometry x="1" relative="1" as="geometry">
            <mxPoint x="30" as="offset" />
          </mxGeometry>
        </mxCell>
        <mxCell id="-slxVZkrEu4Ym89tPLpN-133" value="" style="endArrow=none;html=1;edgeStyle=orthogonalEdgeStyle;rounded=0;exitX=0;exitY=0.5;exitDx=0;exitDy=0;entryX=1;entryY=0.25;entryDx=0;entryDy=0;" edge="1" parent="1" source="-slxVZkrEu4Ym89tPLpN-43" target="-slxVZkrEu4Ym89tPLpN-61">
          <mxGeometry relative="1" as="geometry">
            <mxPoint x="110" y="1229" as="sourcePoint" />
            <mxPoint x="-90" y="200" as="targetPoint" />
            <Array as="points">
              <mxPoint y="1365" />
              <mxPoint y="283" />
            </Array>
          </mxGeometry>
        </mxCell>
        <mxCell id="-slxVZkrEu4Ym89tPLpN-134" value="parent" style="edgeLabel;resizable=0;html=1;align=left;verticalAlign=bottom;" connectable="0" vertex="1" parent="-slxVZkrEu4Ym89tPLpN-133">
          <mxGeometry x="-1" relative="1" as="geometry">
            <mxPoint x="-40" as="offset" />
          </mxGeometry>
        </mxCell>
        <mxCell id="-slxVZkrEu4Ym89tPLpN-135" value="child" style="edgeLabel;resizable=0;html=1;align=right;verticalAlign=bottom;" connectable="0" vertex="1" parent="-slxVZkrEu4Ym89tPLpN-133">
          <mxGeometry x="1" relative="1" as="geometry">
            <mxPoint x="30" as="offset" />
          </mxGeometry>
        </mxCell>
        <mxCell id="-slxVZkrEu4Ym89tPLpN-139" value="" style="endArrow=none;html=1;edgeStyle=orthogonalEdgeStyle;rounded=0;exitX=0;exitY=0.5;exitDx=0;exitDy=0;entryX=1;entryY=0.25;entryDx=0;entryDy=0;" edge="1" parent="1" target="-slxVZkrEu4Ym89tPLpN-61">
          <mxGeometry relative="1" as="geometry">
            <mxPoint x="100" y="1692" as="sourcePoint" />
            <mxPoint x="-90" y="610" as="targetPoint" />
            <Array as="points">
              <mxPoint y="1692" />
              <mxPoint y="283" />
            </Array>
          </mxGeometry>
        </mxCell>
        <mxCell id="-slxVZkrEu4Ym89tPLpN-140" value="parent" style="edgeLabel;resizable=0;html=1;align=left;verticalAlign=bottom;" connectable="0" vertex="1" parent="-slxVZkrEu4Ym89tPLpN-139">
          <mxGeometry x="-1" relative="1" as="geometry">
            <mxPoint x="-40" as="offset" />
          </mxGeometry>
        </mxCell>
        <mxCell id="-slxVZkrEu4Ym89tPLpN-141" value="child" style="edgeLabel;resizable=0;html=1;align=right;verticalAlign=bottom;" connectable="0" vertex="1" parent="-slxVZkrEu4Ym89tPLpN-139">
          <mxGeometry x="1" relative="1" as="geometry">
            <mxPoint x="30" as="offset" />
          </mxGeometry>
        </mxCell>
      </root>
    </mxGraphModel>
  </diagram>
</mxfile>
